<?xml version="1.0" encoding="UTF-8" standalone="no"?>
<svg
   viewBox="0 0 64 64"
   fill="none"
   version="1.1"
   id="svg22"
   sodipodi:docname="forge.svg"
   inkscape:version="1.2.2 (732a01da63, 2022-12-09)"
   xmlns:inkscape="http://www.inkscape.org/namespaces/inkscape"
   xmlns:sodipodi="http://sodipodi.sourceforge.net/DTD/sodipodi-0.dtd"
   xmlns="http://www.w3.org/2000/svg"
   xmlns:svg="http://www.w3.org/2000/svg">
  <defs
     id="defs26" />
  <sodipodi:namedview
     id="namedview24"
     pagecolor="#ffffff"
     bordercolor="#000000"
     borderopacity="0.25"
     inkscape:showpageshadow="2"
     inkscape:pageopacity="0.0"
     inkscape:pagecheckerboard="0"
     inkscape:deskcolor="#d1d1d1"
     showgrid="false"
     inkscape:zoom="12.953125"
     inkscape:cx="32.038601"
     inkscape:cy="32.038601"
     inkscape:window-width="1920"
     inkscape:window-height="1009"
     inkscape:window-x="1912"
     inkscape:window-y="-8"
     inkscape:window-maximized="1"
     inkscape:current-layer="svg22" />
  <!-- Forge - anvil/hammer symbol -->
  <!-- Anvil body -->
  <path
     d="M14 36h36v6a4 4 0 01-4 4H18a4 4 0 01-4-4v-6z"
     fill="#455A64"
     id="path2" />
  <rect
     x="20"
     y="30"
     width="24"
     height="6"
     rx="1"
     fill="#607D8B"
     id="rect4" />
  <rect
     x="24"
     y="24"
     width="16"
     height="6"
     rx="1"
     fill="#78909C"
     id="rect6" />
  <!-- Anvil horn -->
  <path
     d="M40 28h10a4 4 0 010 8H40"
     fill="#546E7A"
     id="path8" />
  <!-- Hammer -->
  <rect
     x="-2.4413512"
     y="34.346436"
     width="6"
     height="20"
     rx="2"
     fill="#8d6e63"
     id="rect10"
     transform="rotate(-66.162461)" />
  <rect
     x="-9.4413509"
     y="32.346436"
     width="20"
     height="8"
     rx="3"
     fill="#37474f"
     id="rect12"
     transform="rotate(-66.162461)" />
  <!-- Sparks -->
  <circle
     cx="18"
     cy="28"
     r="2"
     fill="#FFB74D"
     opacity="0.8"
     id="circle14" />
  <circle
     cx="12"
     cy="24"
     r="1.5"
     fill="#FFA726"
     opacity="0.6"
     id="circle16" />
  <circle
     cx="16"
     cy="20"
     r="1"
     fill="#FFCC02"
     opacity="0.7"
     id="circle18" />
  <!-- Base -->
  <rect
     x="10"
     y="46"
     width="44"
     height="6"
     rx="3"
     fill="#37474F"
     id="rect20" />
</svg>
